<?xml version="1.0" encoding="UTF-8" standalone="no"?>
<!-- Generator: Adobe Illustrator 23.0.6, SVG Export Plug-In . SVG Version: 6.00 Build 0)  -->

<svg version="1.1" id="Layer_1" x="0px" y="0px" viewBox="0 0 161.98 113.38666" xml:space="preserve"
   sodipodi:docname="youtube-logo.svg" width="161.98" height="113.38667"
   inkscape:version="1.1.1 (3bf5ae0d25, 2021-09-20)" xmlns:inkscape="http://www.inkscape.org/namespaces/inkscape"
   xmlns:sodipodi="http://sodipodi.sourceforge.net/DTD/sodipodi-0.dtd" xmlns="http://www.w3.org/2000/svg"
   xmlns:svg="http://www.w3.org/2000/svg" xmlns:rdf="http://www.w3.org/1999/02/22-rdf-syntax-ns#"
   xmlns:cc="http://creativecommons.org/ns#" xmlns:dc="http://purl.org/dc/elements/1.1/">
   <defs id="defs18">
      <clipPath clipPathUnits="userSpaceOnUse" id="clipPath851">
         <path d="M 0,255.118 H 550.024 V 0 H 0 Z" id="path849" />
      </clipPath>
   </defs>
   <sodipodi:namedview id="namedview16" pagecolor="#505050" bordercolor="#eeeeee" borderopacity="1"
      inkscape:pageshadow="0" inkscape:pageopacity="0" inkscape:pagecheckerboard="0" showgrid="false"
      inkscape:zoom="1.6647314" inkscape:cx="169.69705" inkscape:cy="222.55843" inkscape:window-width="1920"
      inkscape:window-height="1009" inkscape:window-x="1072" inkscape:window-y="-8" inkscape:window-maximized="1"
      inkscape:current-layer="g847" />
   <style type="text/css" id="style2">
      .st0 {
         fill: #FFFFFF;
      }
   </style>
   <title id="title4">Asset 3</title>

   <metadata id="metadata835">
      <rdf:RDF>
         <cc:Work rdf:about="">
            <dc:title>Asset 3</dc:title>
         </cc:Work>
      </rdf:RDF>
   </metadata>
   <g id="g847" clip-path="url(#clipPath851)" transform="matrix(1.3333333,0,0,-1.3333333,-228.77145,228.80185)">
      <g id="g853" transform="translate(220.17259,110.85839)">
         <path
            d="M 0,0 V 36.446 L 31.562,18.223 Z m 70.353,47.464 c -1.398,5.226 -5.514,9.343 -10.741,10.74 -9.474,2.539 -47.464,2.539 -47.464,2.539 0,0 -37.989,0 -47.463,-2.539 -5.227,-1.397 -9.343,-5.514 -10.74,-10.74 -2.539,-9.474 -2.539,-29.241 -2.539,-29.241 0,0 0,-19.767 2.539,-29.241 1.397,-5.226 5.513,-9.343 10.74,-10.74 9.474,-2.539 47.463,-2.539 47.463,-2.539 0,0 37.99,0 47.464,2.539 5.227,1.397 9.343,5.514 10.741,10.74 2.538,9.474 2.538,29.241 2.538,29.241 0,0 0,19.767 -2.538,29.241"
            style="fill:#ffffff;fill-opacity:1;fill-rule:nonzero;stroke:none" id="path855" />
      </g>
   </g>
</svg>